<mxfile host="Electron" agent="Mozilla/5.0 (Windows NT 10.0; Win64; x64) AppleWebKit/537.36 (KHTML, like Gecko) draw.io/28.1.2 Chrome/138.0.7204.243 Electron/37.4.0 Safari/537.36" version="28.1.2">
  <diagram name="Page-1" id="Hhy7i-I9vtHqjQe2cV-N">
    <mxGraphModel dx="2211" dy="1002" grid="1" gridSize="10" guides="1" tooltips="1" connect="1" arrows="1" fold="1" page="1" pageScale="1" pageWidth="827" pageHeight="1169" math="0" shadow="0">
      <root>
        <mxCell id="0" />
        <mxCell id="1" parent="0" />
        <mxCell id="Gy4y5DDgaRgGyvNtb4oC-1" value="Artifact" style="swimlane;fontStyle=1;align=center;verticalAlign=top;childLayout=stackLayout;horizontal=1;startSize=26;horizontalStack=0;resizeParent=1;resizeParentMax=0;resizeLast=0;collapsible=1;marginBottom=0;fontColor=#000000;strokeColor=#000000;fillColor=#FFFFFF;" vertex="1" parent="1">
          <mxGeometry x="-420" y="140" width="160" height="120" as="geometry" />
        </mxCell>
        <mxCell id="Gy4y5DDgaRgGyvNtb4oC-2" value="cost" style="text;strokeColor=#000000;fillColor=#FFFFFF;align=left;verticalAlign=top;spacingLeft=4;spacingRight=4;overflow=hidden;rotatable=0;points=[[0,0.5],[1,0.5]];portConstraint=eastwest;fontColor=#000000;" vertex="1" parent="Gy4y5DDgaRgGyvNtb4oC-1">
          <mxGeometry y="26" width="160" height="44" as="geometry" />
        </mxCell>
        <mxCell id="Gy4y5DDgaRgGyvNtb4oC-3" value="" style="text;strokeColor=#000000;fillColor=#FFFFFF;align=left;verticalAlign=top;spacingLeft=4;spacingRight=4;overflow=hidden;rotatable=0;points=[[0,0.5],[1,0.5]];portConstraint=eastwest;fontColor=#000000;" vertex="1" parent="Gy4y5DDgaRgGyvNtb4oC-1">
          <mxGeometry y="70" width="160" height="50" as="geometry" />
        </mxCell>
        <mxCell id="Gy4y5DDgaRgGyvNtb4oC-5" value="Card" style="swimlane;fontStyle=1;align=center;verticalAlign=top;childLayout=stackLayout;horizontal=1;startSize=26;horizontalStack=0;resizeParent=1;resizeParentMax=0;resizeLast=0;collapsible=1;marginBottom=0;fontColor=#000000;strokeColor=#000000;fillColor=#FFFFFF;" vertex="1" parent="1">
          <mxGeometry x="-140" y="140" width="160" height="120" as="geometry" />
        </mxCell>
        <mxCell id="Gy4y5DDgaRgGyvNtb4oC-6" value="image&#xa;description" style="text;strokeColor=#000000;fillColor=#FFFFFF;align=left;verticalAlign=top;spacingLeft=4;spacingRight=4;overflow=hidden;rotatable=0;points=[[0,0.5],[1,0.5]];portConstraint=eastwest;fontColor=#000000;" vertex="1" parent="Gy4y5DDgaRgGyvNtb4oC-5">
          <mxGeometry y="26" width="160" height="44" as="geometry" />
        </mxCell>
        <mxCell id="Gy4y5DDgaRgGyvNtb4oC-7" value="" style="text;strokeColor=#000000;fillColor=#FFFFFF;align=left;verticalAlign=top;spacingLeft=4;spacingRight=4;overflow=hidden;rotatable=0;points=[[0,0.5],[1,0.5]];portConstraint=eastwest;fontColor=#000000;" vertex="1" parent="Gy4y5DDgaRgGyvNtb4oC-5">
          <mxGeometry y="70" width="160" height="50" as="geometry" />
        </mxCell>
        <mxCell id="Gy4y5DDgaRgGyvNtb4oC-8" value="Player" style="swimlane;fontStyle=1;align=center;verticalAlign=top;childLayout=stackLayout;horizontal=1;startSize=26;horizontalStack=0;resizeParent=1;resizeParentMax=0;resizeLast=0;collapsible=1;marginBottom=0;fontColor=#000000;strokeColor=#000000;fillColor=#FFFFFF;" vertex="1" parent="1">
          <mxGeometry x="-140" y="360" width="160" height="120" as="geometry" />
        </mxCell>
        <mxCell id="Gy4y5DDgaRgGyvNtb4oC-9" value="health&#xa;cards" style="text;strokeColor=#000000;fillColor=#FFFFFF;align=left;verticalAlign=top;spacingLeft=4;spacingRight=4;overflow=hidden;rotatable=0;points=[[0,0.5],[1,0.5]];portConstraint=eastwest;fontColor=#000000;" vertex="1" parent="Gy4y5DDgaRgGyvNtb4oC-8">
          <mxGeometry y="26" width="160" height="44" as="geometry" />
        </mxCell>
        <mxCell id="Gy4y5DDgaRgGyvNtb4oC-10" value="buy&#xa;use" style="text;strokeColor=#000000;fillColor=#FFFFFF;align=left;verticalAlign=top;spacingLeft=4;spacingRight=4;overflow=hidden;rotatable=0;points=[[0,0.5],[1,0.5]];portConstraint=eastwest;fontColor=#000000;" vertex="1" parent="Gy4y5DDgaRgGyvNtb4oC-8">
          <mxGeometry y="70" width="160" height="50" as="geometry" />
        </mxCell>
        <mxCell id="Gy4y5DDgaRgGyvNtb4oC-11" value="ColorCard" style="swimlane;fontStyle=1;align=center;verticalAlign=top;childLayout=stackLayout;horizontal=1;startSize=26;horizontalStack=0;resizeParent=1;resizeParentMax=0;resizeLast=0;collapsible=1;marginBottom=0;fontColor=#000000;strokeColor=#000000;fillColor=#FFFFFF;" vertex="1" parent="1">
          <mxGeometry x="150" y="140" width="160" height="120" as="geometry" />
        </mxCell>
        <mxCell id="Gy4y5DDgaRgGyvNtb4oC-12" value="color&#xa;cost" style="text;strokeColor=#000000;fillColor=#FFFFFF;align=left;verticalAlign=top;spacingLeft=4;spacingRight=4;overflow=hidden;rotatable=0;points=[[0,0.5],[1,0.5]];portConstraint=eastwest;fontColor=#000000;" vertex="1" parent="Gy4y5DDgaRgGyvNtb4oC-11">
          <mxGeometry y="26" width="160" height="44" as="geometry" />
        </mxCell>
        <mxCell id="Gy4y5DDgaRgGyvNtb4oC-13" value="colorName" style="text;strokeColor=#000000;fillColor=#FFFFFF;align=left;verticalAlign=top;spacingLeft=4;spacingRight=4;overflow=hidden;rotatable=0;points=[[0,0.5],[1,0.5]];portConstraint=eastwest;fontColor=#000000;" vertex="1" parent="Gy4y5DDgaRgGyvNtb4oC-11">
          <mxGeometry y="70" width="160" height="50" as="geometry" />
        </mxCell>
        <mxCell id="Gy4y5DDgaRgGyvNtb4oC-15" value="" style="endArrow=open;html=1;endSize=12;startArrow=diamondThin;startSize=14;startFill=0;edgeStyle=orthogonalEdgeStyle;align=left;verticalAlign=bottom;fontColor=#000000;strokeColor=#000000;exitX=0.394;exitY=-0.008;exitDx=0;exitDy=0;exitPerimeter=0;entryX=0.446;entryY=0.997;entryDx=0;entryDy=0;entryPerimeter=0;" edge="1" parent="1" source="Gy4y5DDgaRgGyvNtb4oC-8" target="Gy4y5DDgaRgGyvNtb4oC-7">
          <mxGeometry x="-1" y="3" relative="1" as="geometry">
            <mxPoint x="-110" y="300" as="sourcePoint" />
            <mxPoint x="10" y="300" as="targetPoint" />
            <Array as="points">
              <mxPoint x="-77" y="310" />
              <mxPoint x="-69" y="310" />
            </Array>
          </mxGeometry>
        </mxCell>
        <mxCell id="Gy4y5DDgaRgGyvNtb4oC-22" value="" style="endArrow=block;endSize=16;endFill=0;html=1;strokeColor=#000000;fontColor=#000000;labelBackgroundColor=#FFFFFF;" edge="1" parent="1">
          <mxGeometry width="160" relative="1" as="geometry">
            <mxPoint x="150" y="210" as="sourcePoint" />
            <mxPoint x="20" y="210" as="targetPoint" />
          </mxGeometry>
        </mxCell>
        <mxCell id="Gy4y5DDgaRgGyvNtb4oC-23" value="" style="endArrow=block;endSize=16;endFill=0;html=1;strokeColor=#000000;fontColor=#000000;labelBackgroundColor=#FFFFFF;" edge="1" parent="1">
          <mxGeometry width="160" relative="1" as="geometry">
            <mxPoint x="-260" y="210" as="sourcePoint" />
            <mxPoint x="-140" y="210" as="targetPoint" />
          </mxGeometry>
        </mxCell>
        <mxCell id="Gy4y5DDgaRgGyvNtb4oC-27" value="Creature" style="swimlane;fontStyle=1;align=center;verticalAlign=top;childLayout=stackLayout;horizontal=1;startSize=26;horizontalStack=0;resizeParent=1;resizeParentMax=0;resizeLast=0;collapsible=1;marginBottom=0;fontColor=#000000;strokeColor=#000000;fillColor=#FFFFFF;" vertex="1" parent="1">
          <mxGeometry x="150" y="330" width="160" height="150" as="geometry" />
        </mxCell>
        <mxCell id="Gy4y5DDgaRgGyvNtb4oC-28" value="power&#xa;healtÂ &#xa;target" style="text;strokeColor=#000000;fillColor=#FFFFFF;align=left;verticalAlign=top;spacingLeft=4;spacingRight=4;overflow=hidden;rotatable=0;points=[[0,0.5],[1,0.5]];portConstraint=eastwest;fontColor=#000000;" vertex="1" parent="Gy4y5DDgaRgGyvNtb4oC-27">
          <mxGeometry y="26" width="160" height="64" as="geometry" />
        </mxCell>
        <mxCell id="Gy4y5DDgaRgGyvNtb4oC-29" value="bind&#xa;addPower&#xa;addHealth" style="text;strokeColor=#000000;fillColor=#FFFFFF;align=left;verticalAlign=top;spacingLeft=4;spacingRight=4;overflow=hidden;rotatable=0;points=[[0,0.5],[1,0.5]];portConstraint=eastwest;fontColor=#000000;" vertex="1" parent="Gy4y5DDgaRgGyvNtb4oC-27">
          <mxGeometry y="90" width="160" height="60" as="geometry" />
        </mxCell>
        <mxCell id="Gy4y5DDgaRgGyvNtb4oC-31" value="Spell" style="swimlane;fontStyle=1;align=center;verticalAlign=top;childLayout=stackLayout;horizontal=1;startSize=26;horizontalStack=0;resizeParent=1;resizeParentMax=0;resizeLast=0;collapsible=1;marginBottom=0;fontColor=#000000;strokeColor=#000000;fillColor=#FFFFFF;" vertex="1" parent="1">
          <mxGeometry x="410" y="140" width="160" height="120" as="geometry" />
        </mxCell>
        <mxCell id="Gy4y5DDgaRgGyvNtb4oC-32" value="" style="text;strokeColor=#000000;fillColor=#FFFFFF;align=left;verticalAlign=top;spacingLeft=4;spacingRight=4;overflow=hidden;rotatable=0;points=[[0,0.5],[1,0.5]];portConstraint=eastwest;fontColor=#000000;" vertex="1" parent="Gy4y5DDgaRgGyvNtb4oC-31">
          <mxGeometry y="26" width="160" height="44" as="geometry" />
        </mxCell>
        <mxCell id="Gy4y5DDgaRgGyvNtb4oC-33" value="quote" style="text;strokeColor=#000000;fillColor=#FFFFFF;align=left;verticalAlign=top;spacingLeft=4;spacingRight=4;overflow=hidden;rotatable=0;points=[[0,0.5],[1,0.5]];portConstraint=eastwest;fontColor=#000000;" vertex="1" parent="Gy4y5DDgaRgGyvNtb4oC-31">
          <mxGeometry y="70" width="160" height="50" as="geometry" />
        </mxCell>
        <mxCell id="Gy4y5DDgaRgGyvNtb4oC-43" value="" style="endArrow=open;endFill=1;endSize=12;html=1;fontColor=#000000;strokeColor=#000000;exitX=0;exitY=1;exitDx=0;exitDy=0;exitPerimeter=0;" edge="1" parent="1" source="Gy4y5DDgaRgGyvNtb4oC-28">
          <mxGeometry width="160" relative="1" as="geometry">
            <mxPoint x="90" y="419.33" as="sourcePoint" />
            <mxPoint x="20" y="419.33" as="targetPoint" />
          </mxGeometry>
        </mxCell>
        <mxCell id="Gy4y5DDgaRgGyvNtb4oC-48" value="" style="endArrow=block;endSize=16;endFill=0;html=1;strokeColor=#000000;fontColor=#000000;labelBackgroundColor=#FFFFFF;exitX=0.5;exitY=0;exitDx=0;exitDy=0;" edge="1" parent="1" source="Gy4y5DDgaRgGyvNtb4oC-27">
          <mxGeometry width="160" relative="1" as="geometry">
            <mxPoint x="229.33000000000004" y="320" as="sourcePoint" />
            <mxPoint x="229.33000000000004" y="260" as="targetPoint" />
          </mxGeometry>
        </mxCell>
        <mxCell id="Gy4y5DDgaRgGyvNtb4oC-49" value="" style="endArrow=block;endSize=16;endFill=0;html=1;strokeColor=#000000;fontColor=#000000;labelBackgroundColor=#FFFFFF;" edge="1" parent="1">
          <mxGeometry width="160" relative="1" as="geometry">
            <mxPoint x="430" y="210" as="sourcePoint" />
            <mxPoint x="310" y="210" as="targetPoint" />
          </mxGeometry>
        </mxCell>
      </root>
    </mxGraphModel>
  </diagram>
</mxfile>
